<?xml version="1.0" encoding="UTF-8"?><svg id="Layer_2" xmlns="http://www.w3.org/2000/svg" width="175.74" height="457.03" viewBox="0 0 175.74 457.03"><defs><style>.cls-1{fill:#f3f2ec;}.cls-2{fill:#191919;}.cls-3{opacity:.85;}</style></defs><g id="Layer_1-2"><g class="cls-3"><path class="cls-2" d="m171.87,29.24c0-13.99-12.31-25.37-27.44-25.37H31.04C15.91,3.87,3.6,15.25,3.6,29.24v398.45c0,13.99,12.31,25.37,27.44,25.37h113.39c15.13,0,27.44-11.38,27.44-25.37V29.24Z"/></g><path class="cls-1" d="m89.97,414.65l61.15-85.85c1.3-1.82,0-4.35-2.24-4.35h-33.43V46.63c0-1.52-1.23-2.76-2.76-2.76h-49.92c-1.52,0-2.76,1.23-2.76,2.76v277.83H26.59c-2.24,0-3.54,2.53-2.24,4.35l61.14,85.85c1.1,1.54,3.39,1.54,4.49,0Z"/><path class="cls-1" d="m138.11,457.03H37.63c-20.75,0-37.63-16.88-37.63-37.63V37.63C0,16.88,16.88,0,37.63,0h100.49c20.75,0,37.63,16.88,37.63,37.63v381.78c0,20.75-16.88,37.63-37.63,37.63ZM37.63,7.74c-16.48,0-29.88,13.41-29.88,29.88v381.78c0,16.48,13.41,29.88,29.88,29.88h100.49c16.48,0,29.88-13.41,29.88-29.88V37.63c0-16.48-13.41-29.88-29.88-29.88H37.63Z"/></g></svg>