<?xml version="1.0" encoding="UTF-8"?><svg id="Layer_2" xmlns="http://www.w3.org/2000/svg" width="449.64" height="457.03" viewBox="0 0 449.64 457.03"><defs><style>.cls-1{fill:#f3f2ec;}.cls-2{fill:#191919;}.cls-3{fill:#ff74dd;opacity:.95;}</style></defs><g id="Layer_1-2"><path class="cls-2" d="m140.82,427.79c0,13.99,12.31,25.37,27.44,25.37h113.39c15.13,0,27.44-11.38,27.44-25.37V29.35c0-13.99-12.31-25.37-27.44-25.37h-113.39c-15.13,0-27.44,11.38-27.44,25.37v398.45Z"/><path class="cls-1" d="m222.72,42.37l-61.15,85.85c-1.3,1.82,0,4.35,2.24,4.35h33.43v277.83c0,1.52,1.23,2.76,2.76,2.76h49.92c1.52,0,2.76-1.23,2.76-2.76V132.58h33.43c2.24,0,3.54-2.53,2.24-4.35l-61.14-85.85c-1.1-1.54-3.39-1.54-4.49,0Z"/><path class="cls-1" d="m174.57,0h100.49c20.75,0,37.63,16.88,37.63,37.63v381.78c0,20.75-16.88,37.63-37.63,37.63h-100.49c-20.75,0-37.63-16.88-37.63-37.63V37.63c0-20.75,16.88-37.63,37.63-37.63Zm100.49,449.29c16.48,0,29.88-13.41,29.88-29.88V37.63c0-16.48-13.41-29.88-29.88-29.88h-100.49c-16.48,0-29.88,13.41-29.88,29.88v381.78c0,16.48,13.41,29.88,29.88,29.88h100.49Z"/><polyline class="cls-3" points="0 301.09 84.37 418.51 449.64 156.04 365.27 38.63 0 301.09"/><path class="cls-2" d="m89.1,358.83l-23.93-49.91,7.45-5.35,23.93,49.91-7.45,5.35Z"/><path class="cls-2" d="m117.79,338.21l-7.44,5.35-24.23-49.69,16.13-11.59c2.98-2.14,5.48-3.35,7.52-3.62s4.14.14,6.31,1.23c2.17,1.09,4.22,2.98,6.14,5.65,2.82,3.92,4.12,7.76,3.89,11.5s-1.93,7.19-5.13,10.34c1.8.39,3.92,1.25,6.35,2.6,4.06,2.27,9.2,5.7,15.42,10.3l-8.03,5.77c-1.22-1.02-4.73-3.64-10.55-7.85-3-2.15-5.32-3.52-6.97-4.1-1.18-.4-2.18-.54-3-.4-.82.13-1.95.72-3.39,1.75l-3.05,2.19,10.02,20.59Zm-13.65-28.05l3.93-2.83c3.74-2.69,6.1-4.74,7.08-6.16.98-1.42,1.45-3.08,1.41-4.98-.04-1.9-.6-3.61-1.7-5.14-1.2-1.67-2.63-2.49-4.29-2.46-.99-.02-2.57.75-4.75,2.31l-8.2,5.89,6.5,13.36Z"/><path class="cls-2" d="m187.68,273.16l-14.37,10.33,2.62,12.95-7.67,5.51-11.24-59.03,8.26-5.93,37.68,40.03-7.08,5.08-8.21-8.93Zm-6.24-6.68l-14.88-16.31,4.78,23.57,10.1-7.26Z"/><path class="cls-2" d="m221.32,263.82l-7.44,5.35-24.23-49.69,16.13-11.59c2.98-2.14,5.49-3.35,7.52-3.62s4.13.14,6.31,1.23c2.17,1.09,4.22,2.98,6.14,5.65,2.82,3.92,4.12,7.76,3.89,11.5-.22,3.74-1.93,7.19-5.13,10.34,1.8.39,3.92,1.25,6.35,2.6,4.06,2.27,9.2,5.7,15.42,10.3l-8.02,5.77c-1.22-1.02-4.73-3.64-10.55-7.85-3-2.15-5.32-3.52-6.97-4.1-1.18-.4-2.18-.54-3-.4-.82.13-1.95.72-3.39,1.75l-3.05,2.19,10.02,20.59Zm-13.65-28.05l3.93-2.83c3.74-2.69,6.1-4.74,7.08-6.16.98-1.42,1.45-3.08,1.41-4.98-.04-1.9-.6-3.61-1.7-5.14-1.2-1.67-2.63-2.49-4.29-2.46-.99-.02-2.57.75-4.75,2.31l-8.2,5.89,6.5,13.36Z"/><path class="cls-2" d="m264.09,233.09l-7.44,5.35-24.23-49.69,16.13-11.59c2.98-2.14,5.48-3.35,7.52-3.62s4.13.14,6.31,1.23c2.17,1.09,4.22,2.98,6.14,5.65,2.82,3.92,4.12,7.76,3.89,11.5-.22,3.74-1.93,7.19-5.13,10.34,1.8.39,3.92,1.25,6.35,2.6,4.06,2.27,9.2,5.7,15.42,10.3l-8.02,5.77c-1.22-1.02-4.73-3.64-10.55-7.85-3-2.15-5.32-3.52-6.97-4.1-1.18-.4-2.18-.54-3-.4-.82.13-1.95.72-3.39,1.75l-3.05,2.19,10.02,20.59Zm-13.65-28.05l3.93-2.83c3.74-2.69,6.1-4.74,7.08-6.16.98-1.42,1.45-3.08,1.41-4.98-.04-1.9-.6-3.61-1.7-5.14-1.2-1.67-2.63-2.49-4.28-2.46-.99-.02-2.57.75-4.75,2.31l-8.2,5.89,6.5,13.36Z"/><path class="cls-2" d="m298.45,208.4l-23.93-49.91,7.45-5.35,23.93,49.91-7.45,5.35Z"/><path class="cls-2" d="m319.69,193.13l-24.22-49.7,12.44-8.94c3.32-2.39,5.84-3.87,7.55-4.46,2.66-.93,5.21-.95,7.65-.05,2.45.9,4.59,2.64,6.44,5.21,1.87,2.6,2.85,5.18,2.97,7.76.11,2.58-.66,5.14-2.3,7.69,2.23-.68,4.44-.63,6.64.17,2.2.8,4.06,2.24,5.56,4.33,2.05,2.86,3.26,5.91,3.63,9.16.36,3.25-.13,6.13-1.48,8.64-1.35,2.51-3.94,5.14-7.76,7.89l-17.12,12.3Zm-6.98-34.99l5.71-4.1c2.5-1.79,4.14-3.28,4.94-4.47.8-1.18,1.15-2.49,1.07-3.93-.08-1.43-.58-2.79-1.49-4.05-.74-1.03-1.59-1.73-2.57-2.11-.98-.38-1.9-.44-2.78-.18-.88.27-2.49,1.24-4.82,2.92l-5.77,4.15,5.72,11.77Zm10.52,21.64l7.2-5.17c2.82-2.03,4.61-3.62,5.37-4.78.76-1.16,1.1-2.53,1.04-4.11-.07-1.58-.59-3.05-1.55-4.4-1.14-1.59-2.5-2.5-4.08-2.74-1.58-.24-3.36.36-5.35,1.79l-8.94,6.42,6.32,12.99Z"/><path class="cls-2" d="m379.04,135.66l-14.37,10.33,2.62,12.95-7.67,5.51-11.24-59.03,8.26-5.93,37.68,40.03-7.08,5.08-8.21-8.93Zm-6.24-6.68l-14.88-16.31,4.78,23.57,10.1-7.26Z"/></g></svg>