<?xml version="1.0" encoding="UTF-8"?><svg id="Layer_2" xmlns="http://www.w3.org/2000/svg" width="114.62" height="117.57" viewBox="0 0 114.62 117.57"><defs><style>.cls-1{fill:#ff74dd;opacity:.95;}</style></defs><g id="Layer_1-2"><polygon class="cls-1" points="57.31 0 67.28 15.1 82.82 5.82 85.25 23.75 103.27 22.13 97.69 39.34 114.62 45.7 102.12 58.78 114.62 71.87 97.69 78.23 103.27 95.44 85.25 93.82 82.82 111.75 67.28 102.47 57.31 117.57 47.34 102.47 31.81 111.75 29.37 93.82 11.35 95.44 16.94 78.23 0 71.87 12.5 58.78 0 45.7 16.94 39.34 11.35 22.13 29.37 23.75 31.81 5.82 47.34 15.1 57.31 0"/></g></svg>